<?xml version="1.0" encoding="UTF-8" standalone="no"?>
<!-- Created with Inkscape (http://www.inkscape.org/) -->

<svg
   version="1.1"
   id="svg1"
   width="381.18158"
   height="100.50257"
   viewBox="0 0 381.18158 100.50257"
   xmlns="http://www.w3.org/2000/svg"
   xmlns:svg="http://www.w3.org/2000/svg">
  <defs
     id="defs1" />
  <g
     id="g21"
     style="display:inline"
     transform="translate(-35.562718,-152.19745)">
    <g
       id="g20"
       style="display:inline"
       transform="translate(1.7918388,-13.737431)">
      <path
         style="display:inline;fill:#66bbb1"
         d="m 240.65088,265.97104 c -5.57324,-1.8481 -0.002,-6.61843 3.3565,-7.20105 13.13473,-4.5797 27.26975,-5.44252 40.35678,-10.16922 2.60109,-0.57372 7.16198,-4.32845 2.18365,-5.334 -8.03016,-3.29052 -16.86968,-3.52727 -25.38241,-4.59197 -6.77443,-0.78971 -13.65825,-1.06974 -20.32732,-2.49742 13.1001,-0.2653 26.22343,0.082 39.32463,0.42306 10.80559,0.87921 21.82234,1.66108 32.1436,5.2105 3.96089,0.80498 8.73371,5.93134 2.76814,8.06402 -4.84874,2.43518 -10.58643,2.74757 -15.1864,5.66925 -2.71696,1.56844 1.38263,3.37974 2.80809,4.17442 8.48299,3.17496 17.66865,3.60575 26.58327,4.69395 4.90974,0.51356 9.83903,0.85806 14.73148,1.52572 -4.98654,0.68398 -10.08096,0.18962 -15.10604,0.39963 -28.3732,0.0582 -56.74978,0.24186 -85.1211,-0.11277 -1.04528,-0.0531 -2.10432,-0.0314 -3.13287,-0.25412 z"
         id="path19" />
      <path
         style="display:inline;fill:#71a24b"
         d="m 33.770879,247.93714 c 3.29293,-2.10096 19.992022,-6.83452 27.752111,-11.1123 27.008463,-12.20811 52.09055,-28.19541 78.47828,-41.56153 14.47173,-7.05896 26.77088,7.85618 41.10724,6.00414 24.74872,-3.90669 42.95428,-23.1743 64.23343,-34.72087 15.42591,-4.17116 25.04748,14.33867 39.87173,14.81935 13.61927,-1.53099 25.67512,4.72996 36.29507,12.61492 29.32875,18.81459 60.13413,36.28973 93.44372,46.78255 -39.68891,-5.04527 -74.37236,-27.11449 -108.01064,-47.2981 -14.32012,-5.3931 -2.89713,17.87868 5.23525,19.97001 4.47313,2.86173 16.70872,11.93867 4.74906,6.03501 -23.17672,-10.8875 -43.20067,-27.76289 -66.75412,-37.75049 -13.81608,0.0998 -23.4609,12.91695 -35.34397,18.66176 -11.75351,4.1009 -29.3116,18.3873 -10.47957,26.74114 4.87313,4.51236 23.95432,10.85065 21.65583,13.28314 -26.44296,-4.09431 -46.65235,-24.24691 -71.82897,-31.76153 -18.28991,-5.03155 -33.30951,9.04387 -48.85051,16.10674 -22.278275,11.34531 -45.76833,24.142 -71.553941,23.18606 z"
         id="path20" />
    </g>
  </g>
</svg>
